<svg xmlns="http://www.w3.org/2000/svg" width="46.56" height="31" viewBox="0 0 46.56 31">
    <defs>
        <style>
            .cls-1{fill:url(#linear-gradient)}
        </style>
        <linearGradient id="linear-gradient" x1="1" x2="0" y1=".5" y2=".5" gradientUnits="objectBoundingBox">
            <stop offset="0" stop-color="#2bd677"/>
            <stop offset="1" stop-color="#0dbd5f"/>
        </linearGradient>
    </defs>
    <g id="bullhorn" transform="translate(0 -83.047)">
        <g id="Group_51" data-name="Group 51" transform="translate(10.188 105.421)">
            <g id="Group_50" data-name="Group 50">
                <path id="Path_348" d="M119 334.759h-.009l-.042-.007-.11-.02-.168-.029h-.01l-.034-.006-.112-.019-.173-.029h-.011l-.132-.022-.166-.027-.126-.021h-.014l-.163-.026-.135-.021-.151-.024-.136-.021-.146-.022-.13-.019-.14-.021-.124-.018-.135-.019-.121-.017-.127-.018-.115-.016-.122-.016-.109-.014-.117-.015-.1-.013-.207-.026-1.133-.14h-2.444l1.933 8.626h6.825z" class="cls-1" data-name="Path 348" transform="translate(-112.027 -334.102)"/>
            </g>
        </g>
        <g id="Group_53" data-name="Group 53" transform="translate(14.053 83.047)">
            <g id="Group_52" data-name="Group 52">
                <path id="Path_349" d="M175.044 84.209q-.218.123-.439.242l-.157.084-.286.152-.185.1-.261.135-.2.1-.251.125-.208.1-.244.118-.215.1-.24.112-.219.1-.238.107-.222.1-.236.1-.225.1-.235.1-.227.094-.234.1-.23.092-.232.092-.231.09-.231.089-.233.088-.229.086-.235.086-.228.083-.234.083-.228.08-.235.081-.225.077-.236.079-.223.074-.238.078-.221.071-.237.075-.219.068-.238.074-.214.065-.239.072-.212.062-.24.07-.206.059-.243.069-.2.056-.244.067-.2.053-.245.066-.189.05-.249.065-.179.046-.254.064-.165.041-.265.065-.142.034-.281.068-.109.025-.31.072-.022.005c-.656.151-1.29.286-1.9.408l-.054.011-.3.06-.072.014-.286.055-.085.016-.27.05-.093.017-.261.047-.093.017-.251.044-.1.017-.245.042-.09.015-.239.04-.089.015-.234.038-.082.013-.23.036-.077.012-.223.034-.075.011-.217.032-.068.01-.215.031-.059.008-.211.03-.052.007-.207.028-.043.006-.205.027h-.032l-.2.026h-.022l-.2.025h-.012l-.109.013v12.578l.051.006.1.013.115.014.108.014.123.016.113.015.128.017.122.016.133.018.126.017.142.02.13.019.147.021.134.02.154.023.141.021.158.024.143.022.167.026h.016l.13.021.173.028.149.025.18.03.152.026.186.032.157.028.189.033.163.029.193.035.165.031.2.037.167.032.205.039.164.032.216.043.165.033.22.045.171.036.223.047.124.026.585.127.089.02.241.055.171.039.233.054.185.043.226.054.2.048.225.055.2.05.227.057.206.052.226.059.212.056.227.061.214.058.229.063.216.06.228.065.22.063.23.067.221.065.23.069.224.068.23.071.227.071.23.073.228.073.231.076.228.076.232.078.23.078.231.08.232.081.23.082.232.084.231.085.233.087.229.087.234.09.229.089.235.093.227.091.237.1.224.093.238.1.222.095.239.1.219.1.24.108.217.1.241.112.213.1.244.118.208.1.25.125.2.1.261.134.186.1.286.152.158.084q.22.12.439.242l2.069 1.162V83.047z" class="cls-1" data-name="Path 349" transform="translate(-154.537 -83.047)"/>
            </g>
        </g>
        <g id="Group_55" data-name="Group 55" transform="translate(0 90.449)">
            <g id="Group_54" data-name="Group 54">
                <path id="Path_350" d="M6.24 166.444a6.24 6.24 0 0 0 0 12.48h5.048v-12.48z" class="cls-1" data-name="Path 350" transform="translate(0 -166.444)"/>
            </g>
        </g>
        <g id="Group_57" data-name="Group 57" transform="translate(40.726 95.331)">
            <g id="Group_56" data-name="Group 56">
                <path id="Rectangle_76" d="M0 0h5.834v2.766H0z" class="cls-1" data-name="Rectangle 76"/>
            </g>
        </g>
        <g id="Group_59" data-name="Group 59" transform="translate(37.845 87.215)">
            <g id="Group_58" data-name="Group 58">
                <path id="Path_351" d="M420.287 128.882l-2.575 2.575-1.55 1.55 1.55 1.55.406.406 4.125-4.125z" class="cls-1" data-name="Path 351" transform="translate(-416.162 -128.882)"/>
            </g>
        </g>
        <g id="Group_61" data-name="Group 61" transform="translate(37.845 100.216)">
            <g id="Group_60" data-name="Group 60">
                <path id="Path_352" d="M418.118 275.3l-.406.406-1.55 1.55 1.55 1.55 2.575 2.575 1.956-1.956z" class="cls-1" data-name="Path 352" transform="translate(-416.162 -275.303)"/>
            </g>
        </g>
    </g>
</svg>
