<svg xmlns="http://www.w3.org/2000/svg" width="31" height="31" viewBox="0 0 31 31">
    <defs>
        <style>
            .cls-1{fill:url(#linear-gradient)}
        </style>
        <linearGradient id="linear-gradient" x1="1" x2="0" y1=".5" y2=".5" gradientUnits="objectBoundingBox">
            <stop offset="0" stop-color="#2bd677"/>
            <stop offset="1" stop-color="#0dbd5f"/>
        </linearGradient>
    </defs>
    <g id="study">
        <g id="Group_64" data-name="Group 64" transform="translate(10.002)">
            <g id="Group_63" data-name="Group 63">
                <path id="Path_355" d="M171.5 0a5.529 5.529 0 1 0 5.5 5.559A5.557 5.557 0 0 0 171.5 0z" class="cls-1" data-name="Path 355" transform="translate(-166)"/>
            </g>
        </g>
        <g id="Group_66" data-name="Group 66" transform="translate(9.99 10.948)">
            <g id="Group_65" data-name="Group 65">
                <path id="Path_356" d="M173.152 181h-3.665a8.217 8.217 0 0 0-3.677.9 22.994 22.994 0 0 1 5.51 2.283 22.994 22.994 0 0 1 5.51-2.283 8.217 8.217 0 0 0-3.678-.9z" class="cls-1" data-name="Path 356" transform="translate(-165.81 -181)"/>
            </g>
        </g>
        <g id="Group_68" data-name="Group 68" transform="translate(27.335 16.363)">
            <g id="Group_67" data-name="Group 67">
                <path id="Path_357" d="M453.833 271a1.833 1.833 0 0 0-1.833 1.833v3.667a1.833 1.833 0 1 0 3.665 0v-3.665a1.833 1.833 0 0 0-1.832-1.835z" class="cls-1" data-name="Path 357" transform="translate(-452 -271)"/>
            </g>
        </g>
        <g id="Group_70" data-name="Group 70" transform="translate(0 16.363)">
            <g id="Group_69" data-name="Group 69">
                <path id="Path_358" d="M1.833 271A1.833 1.833 0 0 0 0 272.833v3.667a1.833 1.833 0 0 0 3.665 0v-3.665A1.833 1.833 0 0 0 1.833 271z" class="cls-1" data-name="Path 358" transform="translate(0 -271)"/>
            </g>
        </g>
        <g id="Group_72" data-name="Group 72" transform="translate(1.833 12.612)">
            <g id="Group_71" data-name="Group 71">
                <path id="Path_359" d="M30.916 211a.916.916 0 0 0-.916.916v.916a3.669 3.669 0 0 1 3.665 3.665v3.665A3.669 3.669 0 0 1 30 223.829v.916a.916.916 0 0 0 .916.916 21.489 21.489 0 0 1 11.974 3.726v-15.418A23.113 23.113 0 0 0 30.916 211z" class="cls-1" data-name="Path 359" transform="translate(-30 -211)"/>
            </g>
        </g>
        <g id="Group_74" data-name="Group 74" transform="translate(16.277 12.612)">
            <g id="Group_73" data-name="Group 73">
                <path id="Path_360" d="M283.89 212.833v-.916a.916.916 0 0 0-.916-.916A23.113 23.113 0 0 0 271 213.969v15.419a21.489 21.489 0 0 1 11.974-3.726.916.916 0 0 0 .916-.916v-.916a3.669 3.669 0 0 1-3.665-3.665V216.5a3.669 3.669 0 0 1 3.665-3.667z" class="cls-1" data-name="Path 360" transform="translate(-271 -211)"/>
            </g>
        </g>
    </g>
</svg>
